<svg width="25" height="26" viewBox="0 0 25 26" fill="none" xmlns="http://www.w3.org/2000/svg">
<path fill-rule="evenodd" clip-rule="evenodd" d="M1.6129 9.48438C1.6129 5.38594 5.44597 2.0625 10.4839 2.0625C14.4944 2.0625 18.5484 5.38594 18.5484 9.48438C18.5484 13.5836 15.3831 16.9062 10.4839 16.9062C9.76371 16.9062 8.26129 16.8266 7.59112 16.6914L4.83871 18.4688V15.7C2.87177 14.1539 1.6129 12.0891 1.6129 9.48438ZM7.77177 18.2625C8.39838 18.3617 9.82339 18.4688 10.4839 18.4688C16.2742 18.4688 20.1613 14.2945 20.1613 9.38672C20.1613 4.47891 15.304 0.5 10.4839 0.5C4.68629 0.5 0 4.47891 0 9.38672C0 12.2305 1.11855 14.6438 3.22581 16.382V20.8125L7.77177 18.2625ZM21.7331 7.63985C21.7484 7.86329 21.7742 8.08516 21.7742 8.3125C21.7742 8.80937 21.7242 9.29609 21.6524 9.77656C22.7379 11.0078 23.3871 12.525 23.3871 14.1719C23.3871 16.7766 21.7806 19.0633 19.3548 20.3875V23.1562L16.6024 21.3789C15.9323 21.5141 15.2363 21.5938 14.5161 21.5938C12.4274 21.5938 11.3177 20.9859 9.80161 19.9758C9.36209 20.0101 8.91855 20.0312 8.46774 20.0312C8.14677 20.0312 7.83226 20.0094 7.51614 19.9914C9.4363 21.8094 11.4105 22.9609 14.5161 22.9609C15.1766 22.9609 15.821 22.9031 16.4476 22.8039L20.9677 25.5V21.0695C23.4194 19.4422 25 16.918 25 14.0742C25 11.5398 23.7411 9.2586 21.7331 7.63985ZM14.9194 10.6562C15.5879 10.6562 16.129 10.132 16.129 9.48438C16.129 8.8375 15.5879 8.3125 14.9194 8.3125C14.2508 8.3125 13.7097 8.8375 13.7097 9.48438C13.7097 10.132 14.2508 10.6562 14.9194 10.6562ZM5.24194 10.6562C5.91048 10.6562 6.45161 10.132 6.45161 9.48438C6.45161 8.8375 5.91048 8.3125 5.24194 8.3125C4.57339 8.3125 4.03226 8.8375 4.03226 9.48438C4.03226 10.132 4.57339 10.6562 5.24194 10.6562ZM10.0806 10.6562C10.7492 10.6562 11.2903 10.132 11.2903 9.48438C11.2903 8.8375 10.7492 8.3125 10.0806 8.3125C9.4121 8.3125 8.87097 8.8375 8.87097 9.48438C8.87097 10.132 9.4121 10.6562 10.0806 10.6562Z" fill="#7F4A87"/>
</svg>
