<svg width="123" height="38" viewBox="0 0 123 38" fill="none" xmlns="http://www.w3.org/2000/svg">
<g clip-path="url(#clip0_370_8591)">
<path d="M6.854 26.5469L7.04595 28.1842C7.04595 28.6726 7.44689 29.068 7.94134 29.068H21.9661C22.4606 29.068 22.8615 28.672 22.8615 28.1842L23.0711 26.5469H6.854Z" fill="#7F4A87"/>
<path d="M21.9836 34.4419L21.9369 32.3696L20.744 34.0635C20.5119 34.3946 20.2869 34.5607 20.0752 34.5607C19.6115 34.5607 19.0208 33.8958 18.7689 33.612C18.7073 33.5421 18.6534 33.4822 18.6111 33.4382C18.5489 33.3728 18.4785 33.2847 18.4043 33.1913C18.0523 32.7452 17.521 32.0742 16.3517 32.0742C15.6818 32.0742 15.1368 32.3107 14.7491 32.5835C14.3608 32.3107 13.8157 32.0742 13.1464 32.0742C11.9771 32.0742 11.4447 32.7458 11.0927 33.1913C11.019 33.2847 10.9492 33.3728 10.8865 33.4382C10.8436 33.4822 10.7902 33.5421 10.7286 33.612C10.4767 33.8958 9.88548 34.5607 9.42183 34.5607C9.21009 34.5607 8.98624 34.3941 8.75359 34.0635L7.56066 32.3696L7.51446 34.4419C7.51281 34.5085 7.48971 36.0804 8.50555 37.1187C9.07754 37.7028 9.84093 37.9998 10.7748 37.9998C12.6552 37.9998 14.0016 37.1638 14.7496 36.2663C15.4959 37.1644 16.8434 37.9998 18.7238 37.9998C19.6577 37.9998 20.4217 37.7034 20.9931 37.1187C22.0084 36.0804 21.9847 34.5085 21.9836 34.4419Z" fill="#7F4A87"/>
<path d="M24.0555 3.99954C23.4483 3.99954 22.8615 4.08974 22.306 4.25363C20.8276 1.71102 18.0771 0 14.9235 0C11.8045 0 9.07761 1.67307 7.58823 4.17058C7.12624 4.06004 6.64445 3.99899 6.14836 3.99899C2.75271 3.99899 0 6.75169 0 10.1473C0 13.3961 2.52006 16.0548 5.71166 16.2781L6.84354 25.9194H23.0826L24.3151 16.2885C27.5903 16.1521 30.2044 13.4555 30.2044 10.1468C30.2044 6.75279 27.4523 3.99954 24.0555 3.99954ZM24.2409 14.5005L22.7317 14.5632L22.5392 16.063L21.5069 24.1292H19.6501L20.0521 18.7019C20.0686 18.4748 19.8987 18.2768 19.6715 18.2597C19.4389 18.2465 19.247 18.4137 19.2294 18.6403L18.8229 24.1287H15.4432V18.5105C15.4432 18.2828 15.2584 18.098 15.0307 18.098C14.803 18.098 14.6182 18.2828 14.6182 18.5105V24.1292H11.238L10.8315 18.6436C10.8145 18.4165 10.6159 18.246 10.3899 18.2625C10.1627 18.2795 9.99224 18.4775 10.0087 18.7047L10.4102 24.1292H8.43577L7.48923 16.0713L7.31654 14.5973L5.83651 14.4934C3.56724 14.3339 1.79022 12.426 1.79022 10.149C1.79022 7.74608 3.74544 5.79141 6.1478 5.79141C6.48935 5.79141 6.83309 5.83266 7.16969 5.91296L8.45062 6.22095L9.12546 5.08907C10.3569 3.0244 12.5239 1.79187 14.9229 1.79187C17.3159 1.79187 19.5522 3.0805 20.7572 5.15452L21.4645 6.37165L22.8142 5.97126C23.2179 5.85191 23.6353 5.79086 24.0544 5.79086C26.4573 5.79086 28.4126 7.74553 28.4126 10.1484C28.4137 12.4914 26.5805 14.4032 24.2409 14.5005Z" fill="#7F4A87"/>
<path d="M42.421 19.6501L39.2592 17.8393C40.8401 16.0572 42.9671 15.2236 45.1804 15.2236C49.4344 15.2236 51.159 17.5518 51.159 19.7363V29.6528H46.905V28.6468C46.2439 29.3367 45.0654 29.8541 43.7432 29.8541C39.8628 29.8541 38.3682 28.1294 38.3682 25.485C38.3682 22.4957 40.7826 20.4837 44.6917 20.4837H46.905C46.905 19.4202 46.1002 18.7303 44.8929 18.7303C43.657 18.7303 43.0534 18.9603 42.421 19.6501ZM46.905 24.9677V23.7029H44.4043C43.2833 23.7029 42.4497 24.479 42.6222 25.5713C42.7372 26.3473 43.427 26.6635 44.4043 26.6635C46.2726 26.6635 46.905 25.6 46.905 24.9677ZM57.8674 15.4536V29.6528H53.6133V15.4536H57.8674ZM57.9823 11.372C57.9823 12.5792 57.005 13.5277 55.7116 13.5277C54.4756 13.5277 53.4696 12.5792 53.4696 11.372C53.4696 10.1935 54.4756 9.2737 55.7116 9.2737C57.005 9.2737 57.9823 10.1935 57.9823 11.372ZM77.8663 24.5652L80.8556 27.2671C79.2459 29.0492 77.1477 29.8828 74.9057 29.8828C70.7666 29.8828 67.4324 26.7785 67.4324 22.5819C67.4324 18.3854 70.7666 15.2523 74.9057 15.2523C77.1477 15.2523 79.2459 16.0859 80.8556 17.868L77.8663 20.5699C77.2339 19.104 75.8542 18.7591 74.9057 18.7591C73.1523 18.7591 71.6864 20.3112 71.6864 22.5819C71.6864 24.8239 73.1523 26.3761 74.9057 26.3761C75.8542 26.3761 77.2626 26.1174 77.8663 24.5652ZM96.1582 21.5472V29.6528H91.9042V21.5472C91.9042 19.3627 91.3293 18.4429 89.6622 18.4429C87.9376 18.4429 86.9315 19.3627 86.9315 21.5472V29.6528H82.6775V8.78506H86.9315V17.0344C87.4777 15.4536 89.5472 15.2523 90.7832 15.2523C94.7498 15.2523 96.1582 17.1782 96.1582 21.5472ZM112.697 22.5819V23.5305H102.579C102.579 25.1976 104.275 26.3761 105.683 26.3761C107.063 26.3761 108.328 25.83 108.989 24.6227L111.835 27.2384C110.685 28.7905 108.931 29.8828 105.683 29.8828C101.027 29.8828 98.1813 26.7785 98.1813 22.5819C98.1813 18.3854 100.941 15.2523 105.425 15.2523C109.909 15.2523 112.697 18.3279 112.697 22.5819ZM102.665 20.8286H108.242C108.012 19.4776 107.034 18.7591 105.425 18.7591C103.873 18.7591 102.924 19.5926 102.665 20.8286ZM122.941 9.2737V12.6367C122.337 12.0906 121.388 12.0618 121.13 12.0618C119.664 12.0618 119.578 13.614 119.578 14.7925V15.4536H122.941V18.9603H119.578V29.6528H115.324V18.9603H113.743V15.4536H115.324V14.7925C115.324 10.3085 116.991 8.52637 120.612 8.52637C121.475 8.52637 122.279 8.87129 122.941 9.2737Z" fill="#7F4A87"/>
</g>
<defs>
<clipPath id="clip0_370_8591">
<rect width="122.941" height="38" fill="white"/>
</clipPath>
</defs>
</svg>
