<svg width="26" height="26" viewBox="0 0 26 26" fill="none" xmlns="http://www.w3.org/2000/svg">
<path fill-rule="evenodd" clip-rule="evenodd" d="M21.0251 20.5961C22.9001 18.6159 24.05 15.9422 24.05 13C24.05 6.89725 19.1027 1.95 13 1.95C6.89725 1.95 1.95 6.89725 1.95 13C1.95 16.1153 3.23921 18.9296 5.31322 20.9383C6.37811 18.7834 8.29384 17.1241 10.6215 16.3991C9.06026 15.5532 8 13.9004 8 12C8 9.23858 10.2386 7 13 7C15.7614 7 18 9.23858 18 12C18 13.8288 17.0182 15.4283 15.5529 16.3001C17.9078 16.9299 19.876 18.5061 21.0251 20.5961ZM19.7508 21.7488C18.5909 19.3305 16.1197 17.6607 13.2584 17.6607C10.2857 17.6607 7.73396 19.4632 6.6365 22.0349C8.43559 23.3043 10.6307 24.05 13 24.05C15.5421 24.05 17.8837 23.1916 19.7508 21.7488ZM13 26C20.1797 26 26 20.1797 26 13C26 5.8203 20.1797 0 13 0C5.8203 0 0 5.8203 0 13C0 20.1797 5.8203 26 13 26ZM13 15.3333C14.8409 15.3333 16.3333 13.8409 16.3333 12C16.3333 10.1591 14.8409 8.66667 13 8.66667C11.1591 8.66667 9.66667 10.1591 9.66667 12C9.66667 13.8409 11.1591 15.3333 13 15.3333Z" fill="#7F4A87"/>
</svg>
